<svg xmlns="http://www.w3.org/2000/svg" data-name="Layer 1" width="417.65974" height="345.54056" viewBox="0 0 417.65974 345.54056" xmlns:xlink="http://www.w3.org/1999/xlink"><path d="M456.74812,526.797l.46607,35.92976,56.65905,26.1139c13.387-16.01665,11.90508-42.37554-3.19279-56.79077S469.18338,517.373,456.74812,526.797Z" transform="translate(-391.17013 -277.22972)" fill="#d01194"/><path d="M806.44448,428.51291c-.89673-10.5517-2.11227-21.07968-3.86916-31.52475-1.53846-7.64648-1.91416-16.7544-8.3649-22.08142-7.9908-6.40777-17.938-9.77676-27.7476-12.27953-8.81816-2.22674-17.7631-3.90732-26.75726-5.24286-16.56182-2.35619-33.27094-4.03731-50.01464-3.96509-11.80148.04119-23.55285,1.08234-35.31581,1.93413q.02247-2.24-.00214-4.48022c-.55472-18.06392-2.05449-37.6868-12.19786-53.1859-8.88556-12.44749-23.45958-20.87123-38.95137-20.44186-18.129.21878-39.73808,15.334-48.35012,30.97073-10.62873,18.108-10.23216,34.11114-8.79783,53.87329-9.91763,1.2487-19.83846,2.532-29.829,2.94961-25.44151.51745-48.872-1.85675-72.0679-5.60216-3.21386-.3823-6.43986-.71431-9.67726-.78956q-.3921-.00855-.784-.01676.47341.10645.94683.21362c.46343.1077.92347.23037,1.38529.34485-9.13163-.96145-18.45085-2.741-26.83857.53885-14.86146,6.39011-16.69948,28.11385-17.7508,42.24887-1.1066,23.83832,1.29382,47.66505,1.49709,71.50426,1.098,36.57842,2.14222,73.26383,7.52007,109.51576,1.05987,7.42984,1.13762,16.2259,6.662,24.8481,3.39949,4.60165,8.68942,7.32481,13.81228,9.59256,8.78607,3.58939,18.29857,4.86235,27.72192,5.33041,19.43263.07186,38.8394-1.46963,58.28023-1.33947,18.3904-.17171,36.77313,1.12193,55.16335.59289,32.531-1.29507,65.05692-2.66343,97.5449-4.80779,17.81517-.82022,35.65833-1.65151,53.312-4.32331,12.93731-1.85158,25.82238-4.04907,38.75737-5.91491,9.02643-1.40438,18.38024-2.21961,26.60071-6.53009,27.75419-14.85076,25.903-72.60122,29.35042-100.44974C810.21057,476.20577,807.99435,452.29649,806.44448,428.51291ZM561.18224,314.12018c6.02119-8.75665,12.22639-13.62238,23.44034-19.66069,11.50922-5.65743,18.92372-7.32124,31.42061-3.91409,23.41608,7.71015,30.684,30.73662,36.83358,60.809.26337,1.34784.4859,2.70354.72662,4.05584-4.17015.29867-8.3419.57095-12.51811.76175-29.02893,1.8974-58.21229,1.37513-87.11854,4.94758-2.46639.28993-4.93171.59787-7.39739.908C548.66093,344.16138,550.27286,328.93474,561.18224,314.12018Zm37.96087,55.80956c.97642,3.19175,1.68325,6.46482,2.53379,9.69188,1.25459,5.809,2.23868,9.29782,2.31518,14.10221-.12678-.18205-.24857-.34538-.38283-.55615-4.73111-7.0454-6.63921-14.56635-8.92034-23.1347Q596.91583,369.97948,599.14311,369.92974ZM797.58441,523.245c-1.41543,17.00618-1.98067,28.70976-6.66917,44.91782-2.80054,8.64949-3.84419,12.70212-9.11344,19.89445-5.63354,7.202-14.14269,9.1541-23.84527,10.66439-10.27407,1.65579-15.98,2.35941-26.55221,4.03249-14.85985,2.17913-24.59917,3.9034-39.1254,5.0535-20.36769,1.35908-40.78423,1.83767-61.16083,3.07514-19.88233.9372-39.78017,1.4707-59.65946,2.4992-16.40741.87836-32.82516.18223-49.23044-.36839-16.77437-.4793-33.56943-.25249-50.33988.28458-14.83614.54278-29.43905,1.07272-40.89549-2.18216a36.78362,36.78362,0,0,1-15.84645-7.55965c-3.67926-2.32231-5.30188-13.90678-5.95592-19.04605a565.98916,565.98916,0,0,1-5.07133-59.46866c-.88282-27.13367-.88317-54.28768-1.56432-81.42581-.30616-18.08139-2.13313-36.1733-1.07628-54.25487,2.60868-27.8528,9.68957-27.06074,36.41705-29.70455,2.86081.7637,5.69488,1.63208,8.51824,2.52149a226.05184,226.05184,0,0,0,45.6785,11.29775c10.00589,1.46107,20.10307,2.69658,30.234,2.34763,23.38292-.99586,46.48286-5.94451,69.95439-5.73446.36643-.0091.73286-.01658,1.09946-.0255-.214,10.71949.46468,22.34978,8.08174,30.39854,2.8494,3.08887,7.56286,2.05271,8.5655-2.10175.79366-4.29888-.4406-8.66428-1.68022-12.7631a79.56637,79.56637,0,0,0-7.38972-15.70933c15.07508-.34164,30.1539-.644,45.21614-1.32877,15.91545-.86052,31.79025-2.5666,47.74511-2.54413,28.85062.22646,59.78213,4.37182,81.80953,11.2801,5.02122,2.0454,9.37093,3.63628,12.51062,6.64224,1.07681,1.39546.63193.35484,2.20159,5.4185,6.13656,24.17782,7.52346,46.03689,8.80194,70.67333q-7.20391-.40815-14.41729-.60661c-16.72676-.45577-33.44283.44292-50.13589,1.40794-10.24786.5228-20.51141.81131-30.7343,1.73906-27.98029,2.70336-55.865,6.401-83.92037,8.33012-29.44494,2.782-59.06087.66546-88.51026,3.35117-29.51822,1.90382-62.05773,5.79188-88.84744,9.64374-9.22721,1.289-26.5087,2.517-38.1406,5.00945,11.62334-.56417,23.22315.30848,34.84435.32578,21.12265-.22414,42.24388-1.20556,63.33051-2.42645,17.91092-1.08662,35.78726-2.82,53.72332-3.43586,15.03139-.58379,30.08721.14692,45.10665-.81328,44.9271-2.49474,89.53145-8.76235,134.19571-13.98328,20.82648-3.05749,38.27433-6.05827,58.63809-7.62134q2.44678-.20783,4.89355-.418c.24358,4.702.4843,9.49485.75426,14.43726C800.85926,491.10129,798.4979,507.16349,797.58441,523.245Z" transform="translate(-391.17013 -277.22972)"/><path d="M760.52223,466.41457c-.29563-2.34442-.37694,1.63707-.58521,2.50669-1.01459,5.55223-2.04486,11.57056-4.9096,15.75016a5.5844,5.5844,0,0,1-.926.97179q-.31908.0543-.21022.14336c.15994.08113-.30688.09629-.19525.06972q.09334.07221-.16851-.03958c-.04564-.01908-.07346-.03264-.1052-.04743-1.79648-1.20414-2.798-3.04893-3.84045-4.68939-2.05378-3.54891-3.987-7.16951-6.13584-10.66225a104.18268,104.18268,0,0,0,3.38166,11.90507c.99711,2.46532,2.14008,5.08863,4.37984,6.67274,5.38444,3.2777,8.90642-4.34061,9.42887-8.71814A40.05067,40.05067,0,0,0,760.52223,466.41457Z" transform="translate(-391.17013 -277.22972)"/><path d="M512.38029,566.94741c-.289-10.39229-1.04829-20.944-3.74113-31.01371-3.96919-13.67088-29.52625-6.623-40.19188-6.25-.74873.07775-1.4971.16708-2.24458.24857,6.52831.58824,13.068,1.02564,19.60452,1.50458,5.93185.63051,11.46269.90617,15.46629,4.27874.10235.11911.14978.17153.15941.17831a11.7353,11.7353,0,0,1,.45362,1.47338c1.35516,8.45227.8616,25.43063-.25159,37.2428-.1316.9158-.13053,1.09839-.08131.83913q-.11581.86124-.23092,1.72284c.02568-.28209.05278-.51336.07757-.7029-.02443.13712-.05492.3017-.09433.50533a32.39,32.39,0,0,1-1.37513,4.77016c-.12.26247-.2532.51674-.39264.76923-.69862.05635-1.39813.09914-2.09782.13231-18.74167.48678-30.64888.86587-44.43852-9.22739-3.46439-3.20352-3.72669-3.11455-5.62159-6.90846l-.00963-.02692c-1.89829-5.8912-2.95122-13.81692-3.52912-17.77434a84.73578,84.73578,0,0,1-.59324-8.52574c-.1036-2.30787.12607-4.9071,1.91113-6.5743,3.70707-1.48711,7.8749-1.65009,11.75369-2.59834-3.36365.00838-6.72908-.04814-10.09166.04333-2.62294-.15531-4.68564,1.54506-5.87675,3.762-1.863,3.81174-1.78917,8.26219-2.1802,12.4113a111.75961,111.75961,0,0,0,.85392,19.87573c1.08806,6.80379,5.9249,12.3487,11.28634,16.36533,7.16416,5.85767,16.21305,8.92746,25.30492,10.12286a97.4864,97.4864,0,0,0,20.6496.69612c5.1685-.02051,10.63621-1.516,12.7952-6.71838C512.66041,581.1477,512.49762,573.88369,512.38029,566.94741Z" transform="translate(-391.17013 -277.22972)"/><path d="M501.40029,576.46919c.12107-.67794.07453-.57131,0,0Z" transform="translate(-391.17013 -277.22972)"/></svg>