<svg xmlns="http://www.w3.org/2000/svg" data-name="Layer 1" width="143.96918" height="342.03515" viewBox="0 0 143.96918 342.03515" xmlns:xlink="http://www.w3.org/1999/xlink"><path d="M585.56251,302.72535c-.75928-4.95746-1.91424-9.87957-4.437-14.26445-1.62208-3.74143-4.85939-6.189-8.04147-6.3006a5.14662,5.14662,0,0,0-.61042-.84383,6.42083,6.42083,0,0,0-8.33909-1.66482c-2.10492,1.232-3.12815,3.57342-4.15794,5.67778-.107.22694-.197.46045-.30151.68832a75.67467,75.67467,0,0,0-3.54122,8.85357c-6.09291,18.79938-7.5479,39.42836-1.96023,58.52518a101.60207,101.60207,0,0,0,3.89714,12.45512c.86964,1.88029,1.42973,4.17237,3.20234,5.413,2.84643,2.42937,7.12556.67952,8.383-2.471,4.58046.41817,8.0968-4.78195,10.70907-8.29274,3.65891-4.80629,5.30985-10.72008,6.04637-16.63849a113.3554,113.3554,0,0,0,1.26478-17.91947A158.46562,158.46562,0,0,0,585.56251,302.72535Z" transform="translate(-494.92614 -244.47521)" fill="#d01194"/><path d="M622.82731,265.07771c-8.02111-10.51-18.70936-23.03688-33.42927-20.19286a86.97174,86.97174,0,0,0-22.38659,6.01621c-1.35924.5859-8.34186,3.46684-4.17551,2.15127a90.06722,90.06722,0,0,1,22.50658-3.20752c3.47147-.05,6.87762-.19142,9.96876.67018,5.765,1.41142,9.64856,5.72784,13.6519,10.86089.41762.54232,1.03784,1.3474,1.47008,1.90832,12.18256,15.66588,15.24484,32.71209,17.11735,49.48889,3.74032,37.85347-6.91314,78.53329-32.69978,91.39668a34.94169,34.94169,0,0,1-4.04877,1.47988c-2.17643-.76316-4.75327-.50606-7.8383,1.32076-22.1912.72218-39.91148-24.2184-47.68132-47.67966-5.44076-16.55181-6.359-27.97315-5.4551-45.53486.81516-16.1922,6.77807-37.55723,23.00978-49.54579,6.77687-4.75855,14.93824-6.49766,22.81355-8.54716-10.32106.86132-21.15558,2.1311-29.66814,8.58426-20.29018,15.61582-26.51908,42.36777-25.66488,66.85539,1.50421,33.03293,21.61334,77.686,52.65774,85.15029-.03173.25313-.05949.50662-.09094.75974a13.386,13.386,0,0,0-1.30272,5.15257c-.51929,4.60479-.81312,9.23076-1.06189,13.85766-13.22328,9.98735-18.45107,24.70716-6.94525,39.415,6.61626,8.26249,12.44272,12.37121,16.07831,19.51305.18679.40134.36377.78019.4969,1.06107.17532.44842.35461.89546.50856,1.35156a36.38264,36.38264,0,0,1,1.54113,6.27312,35.46466,35.46466,0,0,1-.16061,9.75264c-1.55834,6.34538-1.49876,5.94053-5.23926,11.96469a8.14069,8.14069,0,0,0-.53946.775c-11.29913,14.46594-25.17733,15.47215-44.25537,23.49974-16.61564,6.49368-32.99186,14.21643-36.40735,33.60449-.25257,1.08632-.46489,2.18171-.6713,3.2771.20539-.55908.5192-1.30762.70571-1.79666,2.86873-7.27266,7.52736-14.01123,14.52609-17.80641,10.37647-5.908,25.5719-8.79409,39.254-12.6927,11.09485-3.02749,22.55367-6.90751,30.86131-15.212a44.98986,44.98986,0,0,0,11.62432-18.371c2.63559-9.44716,2.49228-19.9624-1.55537-28.99157-4.02777-9.2365-12.53709-15.26417-19.34079-22.33589-6.29866-7.04443-8.31818-14.92844-.5426-25.23358a2.42231,2.42231,0,0,0,.89721.98048,2.53713,2.53713,0,0,0,3.72228-2.2572c.27783-1.42789.52142-2.97457.749-4.57518,6.30273-5.59369,13.91465-8.75162,21.69355-11.60582a22.95188,22.95188,0,0,1,1.17671,3.85226c.34444,5.723-5.11778,8.36444-9.39164,10.77725q-2.1249,1.10964-4.32863,2.05857a37.70762,37.70762,0,0,0,11.62479-3.6207c9.0177-4.612,6.34519-13.4319,3.44307-21.1218-.56555-1.548-1.19383-3.12741-1.90435-4.633,15.66542-6.955,27.31537-23.42351,32.91581-39.60164C642.53779,343.95562,642.6959,291.93383,622.82731,265.07771Zm-46.2056,167.10888a74.11306,74.11306,0,0,1,2.17718-11.96265,18.10849,18.10849,0,0,1,2.144-2.88566,38.2066,38.2066,0,0,0,11.43374-1.33593,90.44773,90.44773,0,0,1,4.469,8.889c.12342.30271.25248.63188.38043.95642C590.12226,427.14467,583.05082,428.90349,576.62171,432.18659Z" transform="translate(-494.92614 -244.47521)"/><path d="M562.77793,366.91747a149.45672,149.45672,0,0,1-4.23324-18.95869c-3.11075-15.7274-2.6923-31.60274,4.00917-48.21089.88149-2.01194,3.69832-7.8655,5.5268-11.01326-1.47674,1.49978-2.86818,3.08143-4.207,4.70517a60.12363,60.12363,0,0,0-13.4616,44.41191,104.41777,104.41777,0,0,0,8.5578,28.73326c2.685,5.40116,6.45908,10.1635,10.21235,14.85192A139.53584,139.53584,0,0,1,562.77793,366.91747Z" transform="translate(-494.92614 -244.47521)"/><path d="M577.56219,330.7752Z" transform="translate(-494.92614 -244.47521)" fill="#d7f3fd"/></svg>